<svg id="Layer_1" data-name="Layer 1" xmlns="http://www.w3.org/2000/svg" viewBox="0 0 45 45"><defs><style>.cls-1,.cls-2{fill:#4d6069;}.cls-2{fill-rule:evenodd;}</style></defs><title>Icon_Pinterest</title><g id="pinterest"><path class="cls-1" d="M93.48,332v41h-41V332h41m2-2h-45v45h45V330Z" transform="translate(-50.48 -329.96)"/><path class="cls-2" d="M73,340.47a12,12,0,0,0-4.37,23.17,11.37,11.37,0,0,1,0-3.44l1.41-6a4.27,4.27,0,0,1-.36-1.78c0-1.67,1-2.91,2.17-2.91a1.51,1.51,0,0,1,1.52,1.69,23.88,23.88,0,0,1-1,4,1.74,1.74,0,0,0,1.78,2.17c2.13,0,3.77-2.25,3.77-5.49a4.73,4.73,0,0,0-5-4.88,5.2,5.2,0,0,0-5.42,5.2A4.71,4.71,0,0,0,68.4,355a.36.36,0,0,1,.09.35l-.34,1.36c-.05.22-.17.26-.4.16-1.5-.7-2.43-2.89-2.43-4.65,0-3.79,2.75-7.26,7.93-7.26,4.16,0,7.39,3,7.39,6.93,0,4.13-2.6,7.46-6.22,7.46a3.2,3.2,0,0,1-2.75-1.38l-.75,2.86a13.21,13.21,0,0,1-1.49,3.14,11.87,11.87,0,0,0,3.55.54,12,12,0,1,0,0-24Z" transform="translate(-50.48 -329.96)"/></g></svg>