<svg id="Layer_1" data-name="Layer 1" xmlns="http://www.w3.org/2000/svg" viewBox="0 0 45 45"><defs><style>.cls-1{fill:#4d6069;}</style></defs><title>Icon_Instagram</title><g id="intsagram"><path class="cls-1" d="M93.94,332v41h-41V332h41m2-2h-45v45h45V330Z" transform="translate(-50.94 -329.96)"/><path class="cls-1" d="M73.44,342.63c3.21,0,3.59,0,4.85.07,3.25.15,4.77,1.69,4.92,4.92.06,1.26.07,1.64.07,4.85s0,3.58-.07,4.85c-.15,3.22-1.66,4.77-4.92,4.92-1.26.05-1.64.07-4.85.07s-3.58,0-4.85-.07c-3.26-.15-4.77-1.7-4.92-4.92-.05-1.27-.07-1.65-.07-4.85s0-3.59.07-4.85c.15-3.23,1.67-4.77,4.92-4.92C69.86,342.64,70.24,342.63,73.44,342.63Zm0-2.16c-3.26,0-3.67,0-5,.07-4.35.2-6.78,2.62-7,7,0,1.28-.07,1.69-.07,5s0,3.66.07,4.94c.2,4.36,2.62,6.78,7,7,1.28.06,1.69.08,5,.08s3.67,0,5-.08c4.35-.2,6.78-2.61,7-7,.06-1.28.07-1.68.07-4.94s0-3.67-.07-5c-.2-4.35-2.62-6.78-7-7C77.11,340.48,76.7,340.47,73.44,340.47Zm0,5.83a6.17,6.17,0,1,0,6.16,6.17A6.16,6.16,0,0,0,73.44,346.3Zm0,10.17a4,4,0,1,1,4-4A4,4,0,0,1,73.44,356.47Zm6.41-11.85a1.44,1.44,0,1,0,1.44,1.44A1.44,1.44,0,0,0,79.85,344.62Z" transform="translate(-50.94 -329.96)"/></g></svg>