<svg id="Layer_1" data-name="Layer 1" xmlns="http://www.w3.org/2000/svg" viewBox="0 0 45 45"><defs><style>.cls-1{fill:#4d6069;}</style></defs><title>Icon_Twitter</title><g id="twitter"><path class="cls-1" d="M93.65,332.81v41h-41v-41h41m2-2h-45v45h45v-45Z" transform="translate(-50.65 -330.81)"/><path class="cls-1" d="M84.78,346.1a9.43,9.43,0,0,1-2.74.75,4.81,4.81,0,0,0,2.1-2.64,9.49,9.49,0,0,1-3,1.16A4.77,4.77,0,0,0,73,349.72a13.56,13.56,0,0,1-9.83-5,4.78,4.78,0,0,0,1.47,6.37,4.81,4.81,0,0,1-2.16-.6,4.79,4.79,0,0,0,3.83,4.74,4.74,4.74,0,0,1-2.16.08,4.78,4.78,0,0,0,4.46,3.32,9.58,9.58,0,0,1-7.06,2A13.57,13.57,0,0,0,82.4,348.57,9.64,9.64,0,0,0,84.78,346.1Z" transform="translate(-50.65 -330.81)"/></g></svg>